screens;
 
http://baypic.net/share.php?id=91B9_50DCA757
 
http://baypic.net/share.php?id=3994_50DCA730

Format                                   : Windows Media
File size                                : 1.02 GiB
Duration                                 : 18mn 5s
Overall bit rate                         : 8 086 Kbps
Maximum Overall bit rate                 : 8 072 Kbps
Encoded date                             : UTC 2012-12-24 18:36:21.000
Writing application                      : Flip4Mac WMV Export Component for QuickTime (Mac) 2211

Video
ID                                       : 2
Format                                   : VC-1
Format profile                           : Main
Codec ID                                 : WMV3
Codec ID/Info                            : Windows Media Video 9
Codec ID/Hint                            : WMV3
Description of the codec                 : Windows Media Video V9 - 1920 x 1080, 29.97 fps, 8000 kbps (CBR)
Duration                                 : 18mn 5s
Bit rate                                 : 8 008 Kbps
Width                                    : 1 920 pixels
Height                                   : 1 080 pixels
Display aspect ratio                     : 16:9
Frame rate                               : 29.970 fps
Bit depth                                : 8 bits
Scan type                                : Progressive
Compression mode                         : Lossy
Bits/(Pixel*Frame)                       : 0.129
Stream size                              : 1.01 GiB (99%)
Language                                 : English (US)

Audio
ID                                       : 1
Format                                   : WMA
Format version                           : Version 2
Codec ID                                 : 161
Codec ID/Info                            : Windows Media Audio
Description of the codec                 : Windows Media Audio V9 Standard - 64 kbps, 44 kHz, 16 bit, Stereo (CBR)
Duration                                 : 18mn 5s
Bit rate mode                            : Constant
Bit rate                                 : 64.0 Kbps
Channel(s)                               : 2 channels
Sampling rate                            : 44.1 KHz
Bit depth                                : 16 bits
Stream size                              : 8.29 MiB (1%)
Language                                 : English (US)